<svg width="157" height="28" viewBox="0 0 157 28" fill="none" xmlns="http://www.w3.org/2000/svg">
<g clip-path="url(#clip0_153_1601)">
<path d="M78.1029 27.9897C54.6777 27.9897 31.2535 27.9897 7.8283 27.9966C7.43006 27.9966 7.10622 27.9069 6.77888 27.6776C4.63014 26.1689 2.47265 24.6731 0.308163 23.1877C0.00445157 22.979 -0.0603169 22.7842 0.0508397 22.4368C1.45211 18.0416 2.83851 13.6422 4.23103 9.2445C5.16404 6.29862 6.10669 3.35532 7.03095 0.405992C7.12372 0.109421 7.24626 0.00165534 7.57185 0.0033796C9.99279 0.0180357 12.4146 0.0145867 14.8355 0.00682752C15.1007 0.00682752 15.2933 0.069763 15.4885 0.263741C16.4119 1.18191 17.3598 2.07593 18.2893 2.98892C18.5256 3.22083 18.6464 3.27601 18.7584 2.88719C18.9965 2.05869 19.2897 1.24484 19.526 0.416337C19.6188 0.0904537 19.7789 -0.0336922 20.1107 0.00768983C20.2831 0.029243 20.4599 0.0111384 20.6349 0.0111384C64.5532 0.0111384 108.471 0.0111383 152.389 0.00424125C152.773 0.00424125 153.078 0.0878677 153.388 0.322366C154.475 1.14397 155.578 1.94575 156.691 2.73373C156.993 2.9484 157.067 3.1191 156.942 3.49844C155.507 7.85562 154.103 12.2223 152.689 16.5855C151.492 20.278 150.29 23.9696 149.099 27.6647C149.019 27.9121 148.906 28.0328 148.639 27.9923C148.553 27.9794 148.464 27.9906 148.377 27.9906C124.951 27.9906 101.527 27.9906 78.102 27.9906L78.1029 27.9897ZM24.4151 21.3419C27.6387 21.3419 30.8613 21.3375 34.0849 21.3488C34.4017 21.3496 34.5435 21.2565 34.6354 20.9513C35.0643 19.5348 35.5212 18.1261 35.9658 16.7148C36.1216 16.22 36.119 16.2174 35.6026 16.2174C31.4609 16.2174 27.3183 16.2174 23.1767 16.2174C22.6366 16.2174 22.0975 16.207 21.5574 16.2217C21.2756 16.2294 21.1872 16.1458 21.2809 15.8708C21.4384 15.4087 21.6073 14.9466 21.7159 14.4716C21.8034 14.0871 21.9916 13.994 22.3793 13.9957C27.0461 14.0103 31.7138 14.0043 36.3807 14.0086C36.6476 14.0086 36.8323 13.9931 36.9321 13.6758C38.167 9.74023 39.4134 5.80807 40.6703 1.8785C40.7875 1.5121 40.6904 1.45347 40.335 1.45347C33.9177 1.4621 27.5004 1.46296 21.0831 1.45089C20.7548 1.45089 20.6218 1.56641 20.5334 1.85091C20.0757 3.31911 19.6118 4.78645 19.1321 6.24862C19.0254 6.57364 19.1488 6.61071 19.428 6.60554C20.1571 6.59347 20.8861 6.60123 21.6152 6.60123C25.5818 6.60123 29.5493 6.60554 33.516 6.59433C33.8897 6.59347 34.0175 6.65382 33.8661 7.03919C33.6928 7.47973 33.5431 7.93407 33.4354 8.39445C33.347 8.7712 33.1659 8.87983 32.7746 8.87896C28.0929 8.86431 23.4112 8.8712 18.7295 8.86431C18.4494 8.86431 18.2893 8.90741 18.193 9.21261C16.972 13.1077 15.7397 16.9993 14.4968 20.8875C14.3822 21.247 14.4189 21.3522 14.8303 21.3505C18.0241 21.3358 21.2187 21.3427 24.4125 21.3427L24.4151 21.3419ZM141.002 1.46468C137.779 1.46468 134.556 1.46813 131.334 1.45865C131.037 1.45779 130.897 1.53538 130.809 1.8285C130.469 2.97082 130.099 4.10537 129.739 5.24165C128.084 10.4722 126.431 15.7035 124.767 20.9315C124.664 21.2531 124.687 21.347 125.061 21.3419C126.533 21.322 128.006 21.3263 129.479 21.3401C129.749 21.3427 129.857 21.2539 129.934 21.0056C130.459 19.3176 131.001 17.6347 131.535 15.9493C132.486 12.9491 133.438 9.94972 134.377 6.94522C134.46 6.67968 134.571 6.57105 134.858 6.58829C135.265 6.61157 135.675 6.59433 136.083 6.59433C136.455 6.59433 136.587 6.76302 136.481 7.1004C135.022 11.7041 133.565 16.3088 132.098 20.9099C131.997 21.2263 131.993 21.3496 132.401 21.3427C133.844 21.3177 135.288 21.322 136.731 21.341C137.052 21.3453 137.19 21.2505 137.284 20.9496C137.906 18.9451 138.547 16.9459 139.18 14.9449C140.023 12.2869 140.872 9.62988 141.698 6.96677C141.796 6.65037 141.949 6.57536 142.252 6.58743C142.762 6.60899 143.273 6.59347 143.783 6.59347C144.28 6.59347 144.282 6.59433 144.129 7.08057C142.667 11.6973 141.207 16.3157 139.736 20.9298C139.636 21.2427 139.645 21.3462 140.026 21.341C141.498 21.3203 142.971 21.3263 144.444 21.3384C144.706 21.3401 144.832 21.2634 144.911 21.0125C146.922 14.6405 148.938 8.26944 150.966 1.90264C151.088 1.52072 151.008 1.4552 150.625 1.45692C147.417 1.46986 144.209 1.46468 141.001 1.46382L141.002 1.46468ZM46.0364 21.3419C49.2451 21.3419 52.4528 21.3375 55.6615 21.3488C55.9827 21.3496 56.1499 21.2815 56.2541 20.9496C57.4689 17.0683 58.696 13.1905 59.9362 9.31606C60.0579 8.935 59.9765 8.86086 59.5905 8.86258C56.4842 8.87551 53.378 8.87551 50.2717 8.86172C49.9356 8.86 49.7868 8.96259 49.6914 9.27295C49.2503 10.7006 48.7899 12.1231 48.3339 13.5474C48.1869 14.0052 48.1843 14.006 48.698 14.006C50.0835 14.006 51.4691 14.0112 52.8546 14.0017C53.1399 14 53.2572 14.0465 53.1425 14.3621C52.9561 14.875 52.8012 15.4001 52.6471 15.9234C52.585 16.1338 52.4835 16.2234 52.2489 16.2225C49.2013 16.2157 46.1528 16.2157 43.1052 16.2225C42.8356 16.2225 42.7849 16.151 42.8663 15.8975C43.8071 12.9542 44.7437 10.0109 45.6635 7.0616C45.7773 6.69692 45.9436 6.59174 46.3322 6.59347C50.9842 6.60985 55.6361 6.59864 60.2881 6.61416C60.6837 6.61588 60.8439 6.49174 60.9524 6.12878C61.3673 4.73817 61.8128 3.35619 62.2513 1.97247C62.4132 1.46123 62.4184 1.4621 61.8907 1.4621C55.5757 1.4621 49.2617 1.45951 42.9468 1.46468C42.1118 1.46468 42.293 1.32157 42.0365 2.12507C40.0418 8.3841 38.0629 14.6483 36.0691 20.9073C35.9509 21.2772 36.0236 21.3539 36.4122 21.3522C39.6208 21.3375 42.8286 21.3436 46.0373 21.3444L46.0364 21.3419ZM113.124 21.3341C116.333 21.3341 119.541 21.3281 122.749 21.3427C123.092 21.3444 123.225 21.2315 123.321 20.9229C123.843 19.234 124.389 17.5519 124.923 15.8656C126.402 11.1946 127.877 6.52277 129.364 1.85436C129.458 1.56038 129.454 1.45779 129.094 1.45779C122.634 1.46641 116.174 1.46641 109.713 1.45779C109.428 1.45779 109.309 1.55003 109.226 1.81298C107.215 8.18668 105.201 14.5595 103.171 20.9272C103.047 21.3151 103.161 21.3393 103.5 21.3384C106.708 21.3289 109.916 21.3324 113.125 21.3324L113.124 21.3341ZM74.4697 1.45951C71.2908 1.45951 68.1119 1.46554 64.933 1.45089C64.5654 1.44916 64.407 1.55262 64.2976 1.90695C63.6412 4.03554 62.955 6.15551 62.2801 8.27892C60.9323 12.5249 59.587 16.7709 58.2339 21.0151C58.1551 21.2625 58.1962 21.347 58.4728 21.3453C59.9896 21.3367 61.5055 21.3367 63.0224 21.3453C63.2744 21.347 63.3838 21.247 63.4486 21.0177C63.5729 20.5754 63.7261 20.1409 63.8652 19.7021C65.2149 15.4406 66.5662 11.1791 67.9097 6.9159C67.9815 6.6883 68.0752 6.58485 68.3307 6.59519C68.8112 6.61502 69.2935 6.61243 69.774 6.59692C70.0567 6.58829 70.1346 6.65554 70.0375 6.94091C69.7635 7.74354 69.5149 8.5548 69.2594 9.36262C68.0437 13.1991 66.8271 17.0355 65.6131 20.872C65.466 21.3367 65.4713 21.3401 65.9702 21.3401C67.3846 21.3401 68.799 21.3289 70.2134 21.3488C70.5521 21.3531 70.6939 21.2418 70.7911 20.9289C71.5727 18.4192 72.3717 15.9148 73.1665 13.4086C73.8483 11.2576 74.5362 9.10829 75.2084 6.9547C75.2898 6.69261 75.4019 6.57967 75.6916 6.59433C76.1572 6.61761 76.6246 6.59433 77.0911 6.60209C77.7773 6.61416 77.8517 6.42535 77.5751 7.29438C76.8592 9.53935 76.152 11.7869 75.4281 14.0293C75.3266 14.3431 75.3949 14.4112 75.7205 14.4078C77.1935 14.3923 78.6657 14.394 80.1387 14.4078C80.4232 14.4104 80.5387 14.3138 80.6227 14.0474C81.8936 10.017 83.1767 5.99084 84.4554 1.96385C84.6147 1.4621 84.6104 1.45951 84.0502 1.45951C80.8564 1.45951 77.6635 1.45951 74.4697 1.45951ZM91.0312 21.3332C94.2538 21.3332 97.4774 21.3306 100.7 21.3384C100.971 21.3384 101.11 21.2824 101.195 21.0005C101.622 19.5978 102.077 18.2029 102.52 16.8045C102.703 16.2243 102.702 16.2243 102.08 16.2243C97.4424 16.2243 92.8044 16.2243 88.1674 16.2251C87.9249 16.2251 87.6947 16.2794 87.8251 15.8751C88.7695 12.9465 89.7052 10.0152 90.6137 7.07626C90.7362 6.68054 90.906 6.58485 91.3043 6.58571C95.9711 6.60036 100.638 6.59347 105.305 6.59864C105.587 6.59864 105.784 6.58312 105.886 6.24431C106.329 4.77093 106.8 3.30618 107.278 1.84402C107.379 1.53279 107.319 1.45865 106.987 1.45865C100.526 1.46641 94.0657 1.46727 87.6046 1.45692C87.2904 1.45692 87.1827 1.56814 87.0961 1.84057C85.0865 8.20047 83.0699 14.5586 81.0446 20.9134C80.9352 21.2574 80.9816 21.3427 81.3606 21.341C84.5832 21.3272 87.8068 21.3332 91.0294 21.3332H91.0312ZM7.36529 21.341C9.07115 21.341 10.777 21.3341 12.4829 21.347C12.7918 21.3496 12.952 21.2694 13.0465 20.9591C13.4868 19.5159 13.9428 18.0778 14.4163 16.645C14.5336 16.2898 14.4566 16.207 14.089 16.2105C12.412 16.226 10.7359 16.2105 9.0589 16.2234C8.72455 16.226 8.66329 16.1406 8.76657 15.8329C9.12279 14.7699 9.45976 13.7008 9.79848 12.6318C10.9407 9.02983 12.0768 5.42701 13.226 1.82677C13.3205 1.52934 13.2575 1.45089 12.9476 1.45434C11.7958 1.46641 10.644 1.45606 9.49215 1.46037C9.05627 1.4621 8.53025 1.33623 8.20903 1.53107C7.85893 1.74401 7.87119 2.32164 7.73727 2.74321C5.81785 8.78241 3.90456 14.8225 1.99127 20.8634C1.84072 21.3375 1.8451 21.341 2.33524 21.341C4.01222 21.341 5.68832 21.341 7.36529 21.341ZM75.7161 21.3332C76.4294 21.3332 77.1436 21.3082 77.8552 21.3436C78.2237 21.3617 78.3576 21.2229 78.4565 20.8987C78.8985 19.4435 79.3562 17.9934 79.8289 16.5476C79.9313 16.2355 79.807 16.22 79.5549 16.2217C78.0556 16.2286 76.5563 16.2286 75.057 16.2208C74.8347 16.22 74.7192 16.2777 74.65 16.5002C74.187 17.9942 73.7196 19.4866 73.2295 20.972C73.1157 21.3168 73.2347 21.3462 73.5323 21.3401C74.2597 21.3246 74.9879 21.335 75.7152 21.335L75.7161 21.3332Z" fill="#11161C"/>
<path d="M24.4152 21.342C21.2214 21.342 18.0268 21.3351 14.833 21.3498C14.4207 21.3515 14.384 21.2463 14.4995 20.8868C15.7432 16.9986 16.9756 13.107 18.1957 9.21192C18.2911 8.90759 18.4513 8.86362 18.7322 8.86362C23.4139 8.87052 28.0956 8.86362 32.7773 8.87828C33.1694 8.87914 33.3497 8.77051 33.4381 8.39376C33.5458 7.93338 33.6955 7.47991 33.8688 7.0385C34.0202 6.65313 33.8915 6.59278 33.5187 6.59364C29.552 6.60485 25.5845 6.60054 21.6179 6.60054C20.8888 6.60054 20.1597 6.59278 19.4307 6.60485C19.1506 6.60916 19.0281 6.57295 19.1348 6.24793C19.6145 4.78576 20.0775 3.31929 20.5361 1.85023C20.6245 1.56572 20.7575 1.44934 21.0858 1.4502C27.5031 1.46141 33.9204 1.46141 40.3377 1.45279C40.6922 1.45279 40.7902 1.51141 40.673 1.87781C39.4161 5.80652 38.1689 9.73868 36.9348 13.6751C36.8359 13.9915 36.6503 14.0079 36.3834 14.0079C31.7165 14.0036 27.0488 14.0096 22.382 13.995C21.9943 13.9941 21.807 14.0872 21.7186 14.4709C21.61 14.9459 21.442 15.408 21.2836 15.8701C21.1899 16.1451 21.2783 16.2288 21.5601 16.221C22.0993 16.2072 22.6393 16.2167 23.1794 16.2167C27.321 16.2167 31.4636 16.2167 35.6053 16.2167C36.1208 16.2167 36.1243 16.2193 35.9685 16.7141C35.5239 18.1263 35.067 19.5341 34.6381 20.9506C34.5462 21.255 34.4044 21.3489 34.0876 21.3481C30.864 21.3369 27.6414 21.3412 24.4178 21.3412L24.4152 21.342Z" fill="#FE3600"/>
<path d="M141.002 1.46482C144.21 1.46482 147.418 1.47086 150.626 1.45706C151.008 1.45534 151.089 1.52086 150.967 1.90278C148.939 8.26958 146.923 14.6407 144.912 21.0127C144.832 21.2644 144.707 21.3411 144.445 21.3385C142.972 21.3265 141.499 21.3204 140.027 21.3411C139.646 21.3463 139.637 21.2428 139.737 20.9299C141.208 16.3158 142.668 11.6983 144.13 7.08071C144.284 6.59447 144.282 6.59447 143.784 6.59361C143.274 6.59361 142.763 6.60913 142.253 6.58757C141.95 6.57464 141.797 6.65051 141.699 6.96691C140.873 9.63002 140.024 12.2862 139.181 14.945C138.547 16.946 137.906 18.9453 137.285 20.9497C137.191 21.2506 137.053 21.3454 136.732 21.3411C135.289 21.3222 133.845 21.3179 132.402 21.3429C131.994 21.3498 131.998 21.2273 132.099 20.9101C133.566 16.3089 135.023 11.7043 136.482 7.10054C136.589 6.76316 136.456 6.59447 136.084 6.59447C135.675 6.59447 135.266 6.61171 134.859 6.58843C134.572 6.57205 134.461 6.67982 134.378 6.94536C133.439 9.949 132.486 12.9492 131.536 15.9494C131.002 17.6349 130.459 19.3177 129.935 21.0058C129.858 21.2532 129.75 21.3429 129.48 21.3403C128.007 21.3265 126.534 21.3222 125.062 21.342C124.688 21.3472 124.666 21.2523 124.768 20.9316C126.432 15.7037 128.085 10.4723 129.74 5.2418C130.1 4.10465 130.47 2.97096 130.81 1.82864C130.898 1.53552 131.037 1.45793 131.335 1.45879C134.557 1.46913 137.78 1.46482 141.003 1.46482H141.002Z" fill="white"/>
<path d="M46.0363 21.3414C42.8276 21.3414 39.6199 21.3354 36.4112 21.3492C36.0226 21.3509 35.9508 21.2742 36.0681 20.9043C38.0628 14.6453 40.0409 8.38107 42.0355 2.12204C42.292 1.31854 42.1108 1.46251 42.9458 1.46165C49.2607 1.45734 55.5748 1.45907 61.8897 1.45907C62.4175 1.45907 62.4122 1.45907 62.2503 1.96944C61.8118 3.35316 61.3663 4.73514 60.9514 6.12575C60.8429 6.48871 60.6827 6.61199 60.2871 6.61113C55.6352 6.59561 50.9832 6.60682 46.3313 6.59044C45.9427 6.58871 45.7764 6.69476 45.6626 7.05857C44.7427 10.0079 43.8053 12.9521 42.8653 15.8945C42.7839 16.148 42.8346 16.2204 43.1042 16.2195C46.1518 16.2135 49.2003 16.2135 52.2479 16.2195C52.4825 16.2195 52.584 16.1307 52.6462 15.9204C52.8002 15.3962 52.9551 14.872 53.1416 14.3591C53.2562 14.0435 53.1398 13.997 52.8536 13.9987C51.4681 14.0073 50.0826 14.003 48.6971 14.003C48.1833 14.003 48.1859 14.003 48.333 13.5443C48.789 12.121 49.2493 10.6985 49.6905 9.26993C49.7859 8.96042 49.9355 8.85783 50.2708 8.85869C53.377 8.87335 56.4833 8.87249 59.5895 8.85955C59.9755 8.85783 60.0578 8.93197 59.9353 9.31303C58.695 13.1866 57.4679 17.0644 56.2531 20.9466C56.1489 21.2785 55.9818 21.3466 55.6605 21.3457C52.4519 21.3354 49.2441 21.3388 46.0354 21.3388L46.0363 21.3414Z" fill="#FE3600"/>
<path d="M113.124 21.3345C109.916 21.3345 106.708 21.3302 103.499 21.3406C103.161 21.3414 103.047 21.3173 103.17 20.9293C105.2 14.5617 107.215 8.18885 109.225 1.81516C109.308 1.55221 109.427 1.45996 109.713 1.45996C116.173 1.46772 122.633 1.46858 129.093 1.45996C129.453 1.45996 129.457 1.56255 129.364 1.85654C127.877 6.52495 126.402 11.1968 124.922 15.8678C124.388 17.5533 123.843 19.2353 123.32 20.925C123.225 21.2337 123.091 21.3466 122.748 21.3449C119.541 21.3302 116.332 21.3363 113.123 21.3363L113.124 21.3345ZM117.771 6.59564C116.269 6.59564 114.766 6.59909 113.264 6.5922C113.021 6.59133 112.879 6.6284 112.794 6.90256C111.872 9.86741 110.937 12.8288 109.986 15.785C109.86 16.1739 109.955 16.2342 110.333 16.2325C113.279 16.2196 116.226 16.2187 119.172 16.2342C119.527 16.2359 119.683 16.1359 119.788 15.8023C120.703 12.8659 121.63 9.93293 122.572 7.00429C122.693 6.62668 122.576 6.58616 122.236 6.58961C120.748 6.60426 119.26 6.59564 117.773 6.59564H117.771Z" fill="white"/>
<path d="M74.4698 1.45981C77.6636 1.45981 80.8565 1.45981 84.0503 1.45981C84.6104 1.45981 84.6148 1.46154 84.4555 1.96416C83.1768 5.99201 81.8937 10.0181 80.6228 14.0477C80.5388 14.3141 80.4233 14.4107 80.1388 14.4081C78.6658 14.3951 77.1936 14.3934 75.7205 14.4081C75.395 14.4115 75.3276 14.3434 75.4282 14.0296C76.152 11.7872 76.8592 9.53966 77.5752 7.29468C77.8518 6.42566 77.7783 6.61446 77.0912 6.60239C76.6247 6.59463 76.1573 6.61791 75.6917 6.59464C75.402 6.57998 75.2899 6.69292 75.2085 6.955C74.5363 9.10859 73.8484 11.2579 73.1666 13.4089C72.3718 15.9151 71.5736 18.4195 70.7911 20.9292C70.694 21.2421 70.5522 21.3534 70.2135 21.3491C68.7991 21.3292 67.3847 21.3413 65.9703 21.3404C65.4705 21.3404 65.4661 21.3378 65.6132 20.8723C66.8271 17.035 68.0429 13.1994 69.2595 9.36292C69.5159 8.55425 69.7645 7.74385 70.0376 6.94121C70.1347 6.65585 70.0568 6.5886 69.7741 6.59722C69.2936 6.61274 68.8113 6.61533 68.3308 6.5955C68.0744 6.58515 67.9816 6.68861 67.9098 6.91621C66.5672 11.1803 65.2158 15.4409 63.8653 19.7024C63.7261 20.1412 63.573 20.5757 63.4487 21.018C63.3839 21.2473 63.2754 21.3473 63.0224 21.3456C61.5056 21.337 59.9897 21.337 58.4729 21.3456C58.1963 21.3473 58.1552 21.2628 58.2339 21.0154C59.5862 16.7712 60.9315 12.5252 62.2802 8.27923C62.9542 6.15581 63.6412 4.03585 64.2977 1.90726C64.4071 1.55292 64.5646 1.44947 64.9331 1.45119C68.112 1.46585 71.2909 1.45981 74.4698 1.45981Z" fill="#FE3600"/>
<path d="M91.032 21.3343C87.8093 21.3343 84.5858 21.3283 81.3631 21.3421C80.9841 21.3438 80.9368 21.2585 81.0471 20.9145C83.0725 14.5597 85.089 8.20156 87.0986 1.84166C87.1844 1.56923 87.292 1.45715 87.6071 1.45801C94.0682 1.46922 100.528 1.46836 106.99 1.45974C107.321 1.45974 107.382 1.53388 107.28 1.84511C106.802 3.30727 106.331 4.77289 105.888 6.2454C105.787 6.58421 105.59 6.59973 105.307 6.59973C100.64 6.59456 95.9736 6.60146 91.3068 6.5868C90.9086 6.58594 90.7379 6.68163 90.6162 7.07735C89.7068 10.0163 88.7712 12.9484 87.8277 15.8762C87.6973 16.2805 87.9275 16.2262 88.1699 16.2262C92.8078 16.2254 97.4458 16.2254 102.083 16.2254C102.704 16.2254 102.706 16.2254 102.522 16.8056C102.079 18.2039 101.624 19.598 101.198 21.0015C101.112 21.2835 100.973 21.3404 100.703 21.3395C97.4799 21.3317 94.2564 21.3343 91.0337 21.3343H91.032Z" fill="white"/>
<path d="M7.36602 21.3419C5.68904 21.3419 4.01294 21.3419 2.33596 21.3419C1.84582 21.3419 1.84145 21.3384 1.99199 20.8643C3.90528 14.8234 5.81945 8.7833 7.738 2.74411C7.87191 2.32253 7.85966 1.74491 8.20975 1.53196C8.5301 1.33712 9.057 1.46299 9.49287 1.46127C10.6447 1.45696 11.7965 1.4673 12.9484 1.45523C13.2573 1.45179 13.3212 1.53024 13.2267 1.82767C12.0784 5.42705 10.9414 9.03073 9.79921 12.6327C9.46049 13.7009 9.12352 14.7708 8.76729 15.8338C8.66401 16.1424 8.72528 16.2269 9.05962 16.2243C10.7366 16.2105 12.4127 16.226 14.0897 16.2114C14.4573 16.2079 14.5352 16.2907 14.417 16.6459C13.9435 18.0787 13.4875 19.5176 13.0473 20.96C12.9527 21.2712 12.7926 21.3505 12.4836 21.3479C10.7777 21.335 9.07188 21.3419 7.36602 21.3419Z" fill="#FE3600"/>
<path d="M75.717 21.3339C74.9888 21.3339 74.2614 21.3235 73.5341 21.339C73.2365 21.3451 73.1175 21.3166 73.2313 20.9709C73.7214 19.4855 74.1888 17.9923 74.6518 16.4991C74.7209 16.2766 74.8365 16.2189 75.0588 16.2197C76.5581 16.2284 78.0574 16.2275 79.5567 16.2206C79.8087 16.2197 79.933 16.2344 79.8306 16.5465C79.358 17.9923 78.8994 19.4424 78.4582 20.8976C78.3593 21.2218 78.2254 21.3606 77.8569 21.3425C77.1454 21.308 76.4312 21.3321 75.7178 21.3321L75.717 21.3339Z" fill="white"/>
<path d="M117.772 6.59509C119.26 6.59509 120.748 6.60285 122.235 6.58905C122.575 6.5856 122.692 6.62699 122.571 7.00373C121.629 9.93238 120.703 12.8653 119.787 15.8017C119.682 16.1354 119.527 16.2354 119.171 16.2337C116.225 16.2173 113.278 16.219 110.332 16.2319C109.954 16.2337 109.86 16.1742 109.985 15.7845C110.936 12.8283 111.871 9.86685 112.793 6.902C112.879 6.62785 113.02 6.58991 113.263 6.59164C114.765 6.59854 116.268 6.59509 117.77 6.59509H117.772Z" fill="#11161C"/>
</g>
<defs>
<clipPath id="clip0_153_1601">
<rect width="157" height="28" fill="white"/>
</clipPath>
</defs>
</svg>
