<svg xmlns="http://www.w3.org/2000/svg" version="1.1" xmlns:xlink="http://www.w3.org/1999/xlink" width="32" height="32"><svg xmlns="http://www.w3.org/2000/svg" version="1.1" xmlns:xlink="http://www.w3.org/1999/xlink" width="32" height="32"><svg width="32" height="32" viewBox="0 0 32 32" fill="none" xmlns="http://www.w3.org/2000/svg">
<rect width="32" height="32" fill="#1B1D1F"></rect>
<path d="M12.352 27.4801C8.63071 27.4801 4.91045 27.4731 1.18917 27.4891C0.738471 27.4911 0.655233 27.4025 0.791253 26.9753C3.10462 19.747 5.3987 12.5128 7.71206 5.28449C8.00948 4.35657 7.79936 4.52284 8.76775 4.52184C16.0915 4.51686 23.4143 4.51885 30.7381 4.51885C31.3502 4.51885 31.3441 4.51885 31.1563 5.10827C30.6478 6.70626 30.1311 8.30225 29.6499 9.90821C29.5241 10.3274 29.3383 10.4697 28.8795 10.4687C23.4844 10.4508 18.0892 10.4638 12.6941 10.4449C12.2434 10.4429 12.0505 10.5653 11.9185 10.9855C10.8517 14.3915 9.76455 17.7916 8.67436 21.1897C8.57995 21.4824 8.63883 21.5661 8.95147 21.5651C12.486 21.5581 16.0215 21.5581 19.556 21.5651C19.828 21.5651 19.9458 21.4625 20.0179 21.2196C20.1965 20.6142 20.3762 20.0089 20.5924 19.4165C20.7254 19.0521 20.5904 18.9983 20.2584 19.0003C18.6516 19.0103 17.0447 19.0053 15.4378 19.0053C14.842 19.0053 14.845 19.0053 15.0156 18.4756C15.5444 16.8318 16.0783 15.189 16.5899 13.5393C16.7006 13.1818 16.8742 13.0634 17.2629 13.0644C20.8655 13.0813 24.468 13.0803 28.0705 13.0654C28.5181 13.0634 28.6136 13.149 28.4714 13.5891C27.0331 18.0624 25.6099 22.5408 24.201 27.0241C24.0802 27.4074 23.8863 27.4861 23.5138 27.4851C19.7925 27.4731 16.0723 27.4771 12.351 27.4771L12.352 27.4801Z" fill="#FE3600"></path>
</svg></svg><style>@media (prefers-color-scheme: light) { :root { filter: none; } }
@media (prefers-color-scheme: dark) { :root { filter: none; } }
</style></svg>